<?xml version="1.0" encoding="utf-8"?>
<svg viewBox="16.047 45.547 49.328 7.891" xmlns="http://www.w3.org/2000/svg">
  <rect x="1.705" y="4.718" width="1.133" height="1.133" style="fill-opacity: 0.8; fill: rgb(33, 150, 243);" transform="matrix(0, -1, 1, 0, 51.00259, 53.759998)"/>
  <rect x="2.837" y="3.553" width="1.133" height="3.409" style="fill-opacity: 0.9; fill: rgb(33, 150, 243);" transform="matrix(0, -1, 1, 0, 51.00259, 53.759998)"/>
  <rect x="5.66" y="4.718" width="1.133" height="1.133" style="fill-rule: nonzero; mix-blend-mode: darken; stroke-width: 30px; stroke-linecap: square; fill-opacity: 0.8; fill: rgb(33, 150, 243);" transform="matrix(0, -1, 1, 0, 51.00259, 53.759998)"/>
  <rect x="4.528" y="3.553" width="1.133" height="3.409" style="fill-opacity: 0.9; fill: rgb(33, 150, 243);" transform="matrix(0, -1, 1, 0, 51.00259, 53.759998)"/>
  <path d="M 16.491 49.467 C 16.491 49.314 16.521 49.177 16.581 49.057 C 16.634 48.93 16.711 48.824 16.811 48.737 C 16.911 48.65 17.024 48.58 17.151 48.527 C 17.284 48.48 17.418 48.45 17.551 48.437 L 17.551 49.047 C 17.444 49.067 17.364 49.107 17.311 49.167 C 17.251 49.234 17.221 49.327 17.221 49.447 C 17.221 49.54 17.251 49.617 17.311 49.677 C 17.378 49.737 17.458 49.787 17.551 49.827 L 17.551 50.477 C 17.484 50.457 17.414 50.434 17.341 50.407 C 17.274 50.38 17.204 50.35 17.131 50.317 C 16.918 50.204 16.758 50.087 16.651 49.967 C 16.544 49.84 16.491 49.674 16.491 49.467 Z M 18.751 48.707 L 18.511 49.217 C 18.404 49.157 18.291 49.114 18.171 49.087 C 18.044 49.06 17.921 49.04 17.801 49.027 L 17.801 48.427 C 17.981 48.44 18.148 48.467 18.301 48.507 C 18.454 48.547 18.604 48.614 18.751 48.707 Z M 16.501 51.637 L 16.811 51.147 C 16.891 51.2 16.988 51.25 17.101 51.297 C 17.214 51.35 17.354 51.377 17.521 51.377 L 17.551 51.377 L 17.551 51.937 C 17.451 51.937 17.358 51.934 17.271 51.927 C 17.191 51.92 17.108 51.907 17.021 51.887 C 16.941 51.867 16.858 51.834 16.771 51.787 C 16.684 51.747 16.594 51.697 16.501 51.637 Z M 17.801 50.567 L 17.801 49.927 C 17.921 49.967 18.044 50.01 18.171 50.057 C 18.298 50.11 18.411 50.17 18.511 50.237 C 18.618 50.31 18.704 50.4 18.771 50.507 C 18.838 50.614 18.871 50.75 18.871 50.917 C 18.871 51.07 18.841 51.207 18.781 51.327 C 18.728 51.44 18.651 51.54 18.551 51.627 C 18.458 51.714 18.348 51.78 18.221 51.827 C 18.088 51.874 17.948 51.907 17.801 51.927 L 17.801 51.347 C 17.941 51.327 18.048 51.284 18.121 51.217 C 18.194 51.157 18.231 51.074 18.231 50.967 C 18.231 50.86 18.191 50.78 18.111 50.727 C 18.024 50.667 17.921 50.614 17.801 50.567 ZM 20.532 48.497 L 20.532 50.347 C 20.532 50.494 20.535 50.627 20.542 50.747 C 20.555 50.874 20.582 50.98 20.622 51.067 C 20.662 51.16 20.722 51.237 20.802 51.297 C 20.882 51.35 20.989 51.377 21.122 51.377 C 21.175 51.377 21.252 51.37 21.352 51.357 C 21.445 51.337 21.539 51.31 21.632 51.277 L 21.632 51.727 C 21.525 51.78 21.412 51.83 21.292 51.877 C 21.165 51.917 21.042 51.937 20.922 51.937 C 20.822 51.937 20.735 51.927 20.662 51.907 C 20.582 51.894 20.509 51.867 20.442 51.827 C 20.375 51.787 20.312 51.744 20.252 51.697 C 20.192 51.65 20.132 51.594 20.072 51.527 C 20.005 51.46 19.952 51.384 19.912 51.297 C 19.872 51.204 19.842 51.107 19.822 51.007 C 19.802 50.907 19.792 50.807 19.792 50.707 C 19.792 50.607 19.792 50.507 19.792 50.407 L 19.792 48.497 L 20.532 48.497 Z M 21.882 48.497 L 22.612 48.497 L 22.612 51.907 L 21.952 51.907 L 21.882 51.557 L 21.882 48.497 ZM 23.64 48.497 L 24.3 48.497 L 24.38 48.837 L 24.38 53.247 L 23.64 53.247 L 23.64 48.497 Z M 26.63 49.527 C 26.676 49.714 26.7 49.92 26.7 50.147 C 26.7 50.38 26.673 50.604 26.62 50.817 C 26.56 51.037 26.476 51.23 26.37 51.397 C 26.256 51.557 26.116 51.687 25.95 51.787 C 25.783 51.887 25.586 51.937 25.36 51.937 C 25.22 51.937 25.086 51.92 24.96 51.887 C 24.833 51.854 24.723 51.81 24.63 51.757 L 24.63 51.127 C 24.763 51.287 24.926 51.367 25.12 51.367 C 25.24 51.367 25.35 51.337 25.45 51.277 C 25.55 51.217 25.633 51.137 25.7 51.037 C 25.773 50.93 25.83 50.807 25.87 50.667 C 25.91 50.52 25.93 50.367 25.93 50.207 C 25.93 50.047 25.91 49.897 25.87 49.757 C 25.836 49.617 25.786 49.494 25.72 49.387 C 25.653 49.274 25.573 49.184 25.48 49.117 C 25.386 49.057 25.276 49.027 25.15 49.027 C 25.043 49.027 24.946 49.047 24.86 49.087 C 24.773 49.134 24.696 49.194 24.63 49.267 L 24.63 48.627 C 24.723 48.574 24.826 48.534 24.94 48.507 C 25.053 48.474 25.17 48.457 25.29 48.457 C 25.423 48.457 25.556 48.477 25.69 48.517 C 25.83 48.55 25.96 48.61 26.08 48.697 C 26.2 48.784 26.306 48.894 26.4 49.027 C 26.5 49.167 26.576 49.334 26.63 49.527 ZM 29.1 49.027 L 29.1 48.457 C 29.313 48.484 29.51 48.544 29.69 48.637 C 29.863 48.737 30.013 48.864 30.14 49.017 C 30.266 49.17 30.363 49.344 30.43 49.537 C 30.496 49.737 30.53 49.944 30.53 50.157 C 30.53 50.257 30.523 50.354 30.51 50.447 L 28.43 50.447 L 28.43 49.917 L 29.83 49.917 C 29.83 49.81 29.813 49.71 29.78 49.617 C 29.746 49.517 29.696 49.427 29.63 49.347 C 29.563 49.26 29.483 49.19 29.39 49.137 C 29.303 49.077 29.206 49.04 29.1 49.027 Z M 29.07 51.337 C 29.116 51.337 29.173 51.334 29.24 51.327 C 29.306 51.314 29.376 51.294 29.45 51.267 C 29.523 51.24 29.6 51.207 29.68 51.167 C 29.753 51.127 29.816 51.08 29.87 51.027 L 30.14 51.427 C 30.006 51.594 29.85 51.72 29.67 51.807 C 29.496 51.887 29.27 51.927 28.99 51.927 C 28.77 51.927 28.563 51.884 28.37 51.797 C 28.176 51.704 28.01 51.58 27.87 51.427 C 27.736 51.267 27.63 51.08 27.55 50.867 C 27.47 50.66 27.43 50.437 27.43 50.197 C 27.43 49.964 27.466 49.744 27.54 49.537 C 27.613 49.33 27.713 49.15 27.84 48.997 C 27.973 48.844 28.123 48.717 28.29 48.617 C 28.463 48.524 28.65 48.47 28.85 48.457 L 28.85 49.037 C 28.696 49.064 28.573 49.124 28.48 49.217 C 28.38 49.31 28.303 49.417 28.25 49.537 C 28.196 49.657 28.16 49.78 28.14 49.907 C 28.113 50.027 28.1 50.134 28.1 50.227 C 28.1 50.38 28.12 50.527 28.16 50.667 C 28.2 50.8 28.26 50.917 28.34 51.017 C 28.42 51.117 28.52 51.194 28.64 51.247 C 28.76 51.307 28.903 51.337 29.07 51.337 ZM 31.525 48.497 L 32.175 48.497 L 32.255 48.847 L 32.255 50.697 L 32.255 50.707 L 32.255 51.907 L 31.525 51.907 L 31.525 48.497 Z M 32.505 49.257 L 32.505 48.647 C 32.605 48.587 32.725 48.544 32.865 48.517 C 33.011 48.484 33.205 48.467 33.445 48.467 L 33.445 49.227 C 33.331 49.2 33.195 49.184 33.035 49.177 C 32.948 49.177 32.858 49.184 32.765 49.197 C 32.671 49.21 32.585 49.23 32.505 49.257 ZM 36.822 48.987 L 36.492 49.377 C 36.432 49.304 36.348 49.237 36.242 49.177 C 36.135 49.11 35.992 49.07 35.812 49.057 L 35.812 48.477 C 36.038 48.49 36.232 48.54 36.392 48.627 C 36.545 48.707 36.688 48.827 36.822 48.987 Z M 35.812 51.927 L 35.812 51.327 C 35.958 51.314 36.085 51.28 36.192 51.227 C 36.292 51.174 36.388 51.11 36.482 51.037 L 36.752 51.427 C 36.625 51.587 36.492 51.707 36.352 51.787 C 36.205 51.874 36.025 51.92 35.812 51.927 Z M 34.122 50.197 C 34.122 49.97 34.155 49.754 34.222 49.547 C 34.288 49.347 34.388 49.17 34.522 49.017 C 34.648 48.864 34.798 48.74 34.972 48.647 C 35.152 48.554 35.348 48.497 35.562 48.477 L 35.562 49.067 C 35.362 49.114 35.202 49.237 35.082 49.437 C 34.962 49.644 34.902 49.89 34.902 50.177 C 34.902 50.33 34.915 50.474 34.942 50.607 C 34.975 50.734 35.018 50.847 35.072 50.947 C 35.132 51.047 35.202 51.134 35.282 51.207 C 35.368 51.274 35.462 51.314 35.562 51.327 L 35.562 51.927 C 35.342 51.92 35.145 51.867 34.972 51.767 C 34.792 51.674 34.638 51.55 34.512 51.397 C 34.385 51.244 34.288 51.064 34.222 50.857 C 34.155 50.65 34.122 50.43 34.122 50.197 ZM 38.319 50.877 C 38.319 51.057 38.359 51.194 38.439 51.287 C 38.512 51.374 38.619 51.424 38.759 51.437 L 38.759 51.927 C 38.745 51.934 38.719 51.937 38.679 51.937 C 38.545 51.937 38.412 51.92 38.279 51.887 C 38.152 51.847 38.042 51.787 37.949 51.707 C 37.849 51.627 37.772 51.52 37.719 51.387 C 37.665 51.254 37.639 51.09 37.639 50.897 C 37.639 50.71 37.679 50.55 37.759 50.417 C 37.839 50.277 37.939 50.164 38.059 50.077 C 38.185 49.99 38.325 49.927 38.479 49.887 C 38.639 49.847 38.799 49.827 38.959 49.827 L 39.229 49.827 L 39.229 50.257 L 39.089 50.257 C 39.009 50.257 38.925 50.264 38.839 50.277 C 38.752 50.297 38.669 50.327 38.589 50.367 C 38.515 50.414 38.452 50.477 38.399 50.557 C 38.345 50.644 38.319 50.75 38.319 50.877 Z M 40.209 50.847 L 40.209 50.897 C 40.209 50.93 40.209 50.977 40.209 51.037 C 40.215 51.097 40.225 51.16 40.239 51.227 C 40.252 51.294 40.269 51.354 40.289 51.407 C 40.315 51.46 40.352 51.494 40.399 51.507 L 40.209 51.917 C 40.155 51.917 40.099 51.904 40.039 51.877 C 39.979 51.85 39.922 51.817 39.869 51.777 C 39.815 51.73 39.769 51.68 39.729 51.627 C 39.689 51.574 39.659 51.514 39.639 51.447 C 39.599 51.547 39.519 51.637 39.399 51.717 C 39.285 51.797 39.155 51.854 39.009 51.887 L 39.009 51.427 C 39.102 51.407 39.189 51.367 39.269 51.307 C 39.349 51.254 39.415 51.184 39.469 51.097 L 39.469 49.827 C 39.469 49.627 39.459 49.467 39.439 49.347 C 39.419 49.234 39.385 49.15 39.339 49.097 C 39.292 49.044 39.232 49.007 39.159 48.987 C 39.092 48.974 39.009 48.967 38.909 48.967 C 38.822 48.967 38.739 48.98 38.659 49.007 C 38.579 49.027 38.505 49.054 38.439 49.087 C 38.372 49.114 38.315 49.147 38.269 49.187 C 38.215 49.22 38.175 49.247 38.149 49.267 L 37.879 48.847 C 37.919 48.807 37.979 48.764 38.059 48.717 C 38.139 48.67 38.232 48.627 38.339 48.587 C 38.445 48.554 38.559 48.524 38.679 48.497 C 38.805 48.477 38.935 48.467 39.069 48.467 C 39.189 48.467 39.305 48.48 39.419 48.507 C 39.539 48.527 39.645 48.567 39.739 48.627 C 39.832 48.68 39.915 48.757 39.989 48.857 C 40.055 48.95 40.102 49.067 40.129 49.207 C 40.162 49.347 40.182 49.49 40.189 49.637 C 40.202 49.777 40.209 49.917 40.209 50.057 L 40.209 50.847 ZM 41.357 48.497 L 42.017 48.497 L 42.097 48.837 L 42.097 53.247 L 41.357 53.247 L 41.357 48.497 Z M 44.347 49.527 C 44.394 49.714 44.417 49.92 44.417 50.147 C 44.417 50.38 44.39 50.604 44.337 50.817 C 44.277 51.037 44.194 51.23 44.087 51.397 C 43.974 51.557 43.834 51.687 43.667 51.787 C 43.5 51.887 43.304 51.937 43.077 51.937 C 42.937 51.937 42.804 51.92 42.677 51.887 C 42.55 51.854 42.44 51.81 42.347 51.757 L 42.347 51.127 C 42.48 51.287 42.644 51.367 42.837 51.367 C 42.957 51.367 43.067 51.337 43.167 51.277 C 43.267 51.217 43.35 51.137 43.417 51.037 C 43.49 50.93 43.547 50.807 43.587 50.667 C 43.627 50.52 43.647 50.367 43.647 50.207 C 43.647 50.047 43.627 49.897 43.587 49.757 C 43.554 49.617 43.504 49.494 43.437 49.387 C 43.37 49.274 43.29 49.184 43.197 49.117 C 43.104 49.057 42.994 49.027 42.867 49.027 C 42.76 49.027 42.664 49.047 42.577 49.087 C 42.49 49.134 42.414 49.194 42.347 49.267 L 42.347 48.627 C 42.44 48.574 42.544 48.534 42.657 48.507 C 42.77 48.474 42.887 48.457 43.007 48.457 C 43.14 48.457 43.274 48.477 43.407 48.517 C 43.547 48.55 43.677 48.61 43.797 48.697 C 43.917 48.784 44.024 48.894 44.117 49.027 C 44.217 49.167 44.294 49.334 44.347 49.527 ZM 45.847 50.877 C 45.847 51.057 45.887 51.194 45.967 51.287 C 46.04 51.374 46.147 51.424 46.287 51.437 L 46.287 51.927 C 46.274 51.934 46.247 51.937 46.207 51.937 C 46.074 51.937 45.94 51.92 45.807 51.887 C 45.68 51.847 45.57 51.787 45.477 51.707 C 45.377 51.627 45.3 51.52 45.247 51.387 C 45.194 51.254 45.167 51.09 45.167 50.897 C 45.167 50.71 45.207 50.55 45.287 50.417 C 45.367 50.277 45.467 50.164 45.587 50.077 C 45.714 49.99 45.854 49.927 46.007 49.887 C 46.167 49.847 46.327 49.827 46.487 49.827 L 46.757 49.827 L 46.757 50.257 L 46.617 50.257 C 46.537 50.257 46.454 50.264 46.367 50.277 C 46.28 50.297 46.197 50.327 46.117 50.367 C 46.044 50.414 45.98 50.477 45.927 50.557 C 45.874 50.644 45.847 50.75 45.847 50.877 Z M 47.737 50.847 L 47.737 50.897 C 47.737 50.93 47.737 50.977 47.737 51.037 C 47.744 51.097 47.754 51.16 47.767 51.227 C 47.78 51.294 47.797 51.354 47.817 51.407 C 47.844 51.46 47.88 51.494 47.927 51.507 L 47.737 51.917 C 47.684 51.917 47.627 51.904 47.567 51.877 C 47.507 51.85 47.45 51.817 47.397 51.777 C 47.344 51.73 47.297 51.68 47.257 51.627 C 47.217 51.574 47.187 51.514 47.167 51.447 C 47.127 51.547 47.047 51.637 46.927 51.717 C 46.814 51.797 46.684 51.854 46.537 51.887 L 46.537 51.427 C 46.63 51.407 46.717 51.367 46.797 51.307 C 46.877 51.254 46.944 51.184 46.997 51.097 L 46.997 49.827 C 46.997 49.627 46.987 49.467 46.967 49.347 C 46.947 49.234 46.914 49.15 46.867 49.097 C 46.82 49.044 46.76 49.007 46.687 48.987 C 46.62 48.974 46.537 48.967 46.437 48.967 C 46.35 48.967 46.267 48.98 46.187 49.007 C 46.107 49.027 46.034 49.054 45.967 49.087 C 45.9 49.114 45.844 49.147 45.797 49.187 C 45.744 49.22 45.704 49.247 45.677 49.267 L 45.407 48.847 C 45.447 48.807 45.507 48.764 45.587 48.717 C 45.667 48.67 45.76 48.627 45.867 48.587 C 45.974 48.554 46.087 48.524 46.207 48.497 C 46.334 48.477 46.464 48.467 46.597 48.467 C 46.717 48.467 46.834 48.48 46.947 48.507 C 47.067 48.527 47.174 48.567 47.267 48.627 C 47.36 48.68 47.444 48.757 47.517 48.857 C 47.584 48.95 47.63 49.067 47.657 49.207 C 47.69 49.347 47.71 49.49 47.717 49.637 C 47.73 49.777 47.737 49.917 47.737 50.057 L 47.737 50.847 ZM 51.485 48.987 L 51.155 49.377 C 51.095 49.304 51.012 49.237 50.905 49.177 C 50.798 49.11 50.655 49.07 50.475 49.057 L 50.475 48.477 C 50.702 48.49 50.895 48.54 51.055 48.627 C 51.208 48.707 51.352 48.827 51.485 48.987 Z M 50.475 51.927 L 50.475 51.327 C 50.622 51.314 50.748 51.28 50.855 51.227 C 50.955 51.174 51.052 51.11 51.145 51.037 L 51.415 51.427 C 51.288 51.587 51.155 51.707 51.015 51.787 C 50.868 51.874 50.688 51.92 50.475 51.927 Z M 48.785 50.197 C 48.785 49.97 48.818 49.754 48.885 49.547 C 48.952 49.347 49.052 49.17 49.185 49.017 C 49.312 48.864 49.462 48.74 49.635 48.647 C 49.815 48.554 50.012 48.497 50.225 48.477 L 50.225 49.067 C 50.025 49.114 49.865 49.237 49.745 49.437 C 49.625 49.644 49.565 49.89 49.565 50.177 C 49.565 50.33 49.578 50.474 49.605 50.607 C 49.638 50.734 49.682 50.847 49.735 50.947 C 49.795 51.047 49.865 51.134 49.945 51.207 C 50.032 51.274 50.125 51.314 50.225 51.327 L 50.225 51.927 C 50.005 51.92 49.808 51.867 49.635 51.767 C 49.455 51.674 49.302 51.55 49.175 51.397 C 49.048 51.244 48.952 51.064 48.885 50.857 C 48.818 50.65 48.785 50.43 48.785 50.197 ZM 53.153 48.497 L 53.153 51.907 L 52.413 51.907 L 52.413 48.497 L 53.153 48.497 Z M 53.223 47.407 C 53.223 47.527 53.179 47.627 53.093 47.707 C 53.013 47.794 52.909 47.837 52.783 47.837 C 52.663 47.837 52.563 47.794 52.483 47.707 C 52.396 47.62 52.353 47.52 52.353 47.407 C 52.353 47.28 52.396 47.177 52.483 47.097 C 52.569 47.01 52.669 46.967 52.783 46.967 C 52.909 46.967 53.013 47.01 53.093 47.097 C 53.179 47.177 53.223 47.28 53.223 47.407 ZM 60.763 49.047 L 60.763 48.477 C 60.983 48.49 61.183 48.544 61.363 48.637 C 61.543 48.73 61.696 48.854 61.823 49.007 C 61.943 49.167 62.039 49.347 62.113 49.547 C 62.179 49.754 62.213 49.974 62.213 50.207 C 62.213 50.447 62.176 50.667 62.103 50.867 C 62.036 51.074 61.939 51.25 61.813 51.397 C 61.686 51.55 61.533 51.674 61.353 51.767 C 61.173 51.86 60.976 51.914 60.763 51.927 L 60.763 51.347 C 60.963 51.307 61.126 51.18 61.253 50.967 C 61.379 50.76 61.443 50.507 61.443 50.207 C 61.443 50.06 61.426 49.92 61.393 49.787 C 61.366 49.66 61.323 49.544 61.263 49.437 C 61.203 49.33 61.129 49.244 61.043 49.177 C 60.956 49.11 60.863 49.067 60.763 49.047 Z M 59.073 50.197 C 59.073 49.964 59.106 49.747 59.173 49.547 C 59.239 49.347 59.336 49.17 59.463 49.017 C 59.589 48.864 59.743 48.74 59.923 48.647 C 60.103 48.554 60.299 48.497 60.513 48.477 L 60.513 49.047 C 60.306 49.087 60.143 49.214 60.023 49.427 C 59.903 49.634 59.843 49.884 59.843 50.177 C 59.843 50.33 59.859 50.474 59.893 50.607 C 59.919 50.74 59.963 50.86 60.023 50.967 C 60.076 51.067 60.146 51.154 60.233 51.227 C 60.313 51.294 60.406 51.334 60.513 51.347 L 60.513 51.927 C 60.286 51.914 60.086 51.86 59.913 51.767 C 59.733 51.674 59.579 51.55 59.453 51.397 C 59.333 51.244 59.239 51.064 59.173 50.857 C 59.106 50.65 59.073 50.43 59.073 50.197 ZM 63.156 48.497 L 63.806 48.497 L 63.886 48.847 L 63.886 50.697 L 63.886 50.707 L 63.886 51.907 L 63.156 51.907 L 63.156 48.497 Z M 64.136 49.257 L 64.136 48.647 C 64.236 48.587 64.356 48.544 64.496 48.517 C 64.642 48.484 64.836 48.467 65.076 48.467 L 65.076 49.227 C 64.962 49.2 64.826 49.184 64.666 49.177 C 64.579 49.177 64.489 49.184 64.396 49.197 C 64.302 49.21 64.216 49.23 64.136 49.257 Z" transform="matrix(1, 0, 0, 1, 0, 0)" style="fill: rgb(51, 51, 51); white-space: pre;"/>
</svg>